PathFileType	4	(X/Y/Z)	/Users/mathieubourgeois/Desktop/Analyse/Traitement/Sujet_06/Data/Transformed_Sujet_06_velo_80.trc
DataRate	CameraRate	NumFrames	NumMarkers	Units	OrigDataRate	OrigDataStartFrame	OrigNumFrames
120.000000	120.000000	5	36	mm	120.000000	473	1892
Frame#	Time	RFHD			RANE			STRN			LANI			LKNE			T10			RHUM			RWRB			C7			LFWT			LTOE			RTOE			LWRA			LBWT			RBWT			RFWT			LKNI			RKNI			RKNE			LANE			RANI			LHEE			RHEE			LHUM			LRAD			RRAD			RWRA			LWRB			LFHD			LBHD			RBHD			RSHO			LSHO			CLAV			LCAR			RCAR			
		X1	Y1	Z1	X2	Y2	Z2	X3	Y3	Z3	X4	Y4	Z4	X5	Y5	Z5	X6	Y6	Z6	X7	Y7	Z7	X8	Y8	Z8	X9	Y9	Z9	X10	Y10	Z10	X11	Y11	Z11	X12	Y12	Z12	X13	Y13	Z13	X14	Y14	Z14	X15	Y15	Z15	X16	Y16	Z16	X17	Y17	Z17	X18	Y18	Z18	X19	Y19	Z19	X20	Y20	Z20	X21	Y21	Z21	X22	Y22	Z22	X23	Y23	Z23	X24	Y24	Z24	X25	Y25	Z25	X26	Y26	Z26	X27	Y27	Z27	X28	Y28	Z28	X29	Y29	Z29	X30	Y30	Z30	X31	Y31	Z31	X32	Y32	Z32	X33	Y33	Z33	X34	Y34	Z34	X35	Y35	Z35	X36	Y36	Z36	

474	3.941666666666666	251.2319030761718	1368.836547851562	130.6418457031249	46.11915206909178	455.5545959472656	187.9483032226562	-35.62799453735352	1199.757568359375	48.36124801635734	-167.3810882568359	373.3833618164062	-61.98059844970707	22.38858604431154	708.590576171875	-140.4178009033204	-206.6816558837891	1346.693603515625	55.12417602539051	176.2647399902343	1114.290649414062	226.5302276611328	384.3274841308594	1012.462341308594	173.5710144042969	29.13801765441894	1461.0703125	62.6336021423339	-187.0918426513672	1107.5947265625	-65.23436737060557	-89.16725158691405	218.0750732421875	-129.5189514160156	227.3032073974609	415.1664733886719	193.5367584228516	407.4073181152344	1029.037841796875	-125.6208114624023	-346.0780029296875	1139.279663085938	-8.920924186706655	-341.5225219726562	1135.589599609375	101.0463638305663	-181.5619201660157	1103.139038085938	144.810089111328	32.26995849609376	660.2938232421875	-45.60195541381839	150.5108337402344	804.420166015625	88.6124572753906	116.3675308227539	846.8365478515625	180.3714752197265	-199.1649475097656	378.4675598144531	-139.4165496826172	73.36348724365233	456.9287414550781	110.5575180053711	-246.7468109130859	399.7517700195312	-98.59856414794928	-7.520700454711932	434.5090942382812	142.1576080322265	184.2376251220703	1122.4140625	-186.4303741455078	219.5426330566407	1168.936889648438	-213.6176452636719	215.4658050537109	1142.12109375	275.2404785156249	410.9627685546874	1019.164794921875	233.8394622802734	431.8782043457031	1033.6572265625	-184.2541961669922	257.175537109375	1365.493530273438	-12.95637416839605	189.6033782958984	1499.917114257812	-19.62786293029792	187.3489685058594	1522.215209960938	109.0768203735351	50.08879089355467	1406.5029296875	200.7560882568359	43.56831741333009	1413.015991210938	-93.6416549682618	49.25383758544921	1323.843139648438	52.77670669555657	483.1679077148438	1048.049194335938	-102.6899642944336	485.7929992675781	1048.48779296875	175.3953704833984	
475	3.95	251.4440612792968	1368.860717773438	129.851089477539	50.4341354370117	442.4619750976562	187.9332580566406	-35.65029525756837	1199.726440429688	47.99436187744133	-170.2388916015625	385.1350402832031	-62.37742614746098	27.81828308105471	714.2073364257812	-140.7333068847657	-206.6503143310547	1346.730712890625	55.16091537475575	176.2911224365234	1114.29248046875	226.1612091064453	384.3511962890625	1012.229309082031	173.5543212890625	29.24399375915527	1461.027587890625	62.13109207153312	-186.9984588623047	1107.6181640625	-64.9388427734376	-94.14086151123045	228.94921875	-129.5926971435547	232.2511901855468	403.5403747558594	193.6690521240234	407.4897766113281	1028.996337890625	-125.6324615478516	-346.1029968261719	1139.377197265625	-8.670684814453237	-341.3720397949219	1135.532836914062	101.3567581176757	-181.4329681396485	1103.022583007812	145.0573120117187	37.09309005737305	666.130615234375	-45.71038436889652	144.6372375488281	793.3031616210938	89.17023468017575	112.8157196044922	836.5795288085938	180.9479370117187	-201.7740173339843	390.9077758789062	-138.9732513427735	77.90432739257811	444.6110229492188	110.5045776367187	-248.9353485107422	413.0775146484375	-98.14330291748053	-2.699969291687029	420.8573608398438	141.8313903808593	184.2416687011719	1122.195068359375	-186.5119934082032	219.4952850341797	1168.691650390625	-213.7925720214844	215.4470062255859	1142.072387695312	274.8688049316406	410.9239807128906	1018.984619140625	233.8652954101562	431.94677734375	1033.576782226562	-184.2655944824219	257.1785888671875	1365.476440429688	-13.69204235076909	189.5271453857422	1499.837890625	-20.28779792785651	187.4628143310547	1522.196166992188	108.3639221191406	50.25130844116209	1406.557250976562	200.2766571044921	43.4616165161133	1412.772827148438	-94.09430694580087	49.20529174804687	1323.734375	52.36024093627923	483.1983947753906	1048.054565429688	-102.6810684204102	485.7059936523438	1048.4609375	175.4434967041016	
476	3.958333333333333	251.6995697021484	1368.877319335938	129.0597534179687	54.0349655151367	429.0648498535156	187.9476623535156	-35.63701248168946	1199.707397460938	47.60720443725578	-172.6587371826172	397.0805358886719	-61.88133621215825	33.37400054931642	720.22900390625	-141.0486755371094	-206.5470733642578	1346.821166992188	55.19743728637684	176.3602142333984	1114.329833984375	225.7470092773437	384.4062194824219	1011.888427734375	173.5972900390625	29.39252471923827	1461.023193359375	61.63174438476554	-186.8802795410156	1107.684204101562	-64.61602020263682	-98.61160278320311	239.9322204589844	-129.4894714355469	236.3231964111328	391.4863891601562	193.7892761230469	407.5255737304688	1028.971801757812	-125.6048431396484	-346.0924987792969	1139.499877929688	-8.387598991394155	-341.11181640625	1135.514404296875	101.667869567871	-181.2352142333985	1102.900634765625	145.2941589355468	43.18651580810548	672.7471923828125	-46.19452285766605	139.5711975097656	782.9381103515625	90.7109680175781	108.4898529052734	825.6936645507812	182.2195129394531	-203.578628540039	403.6272888183594	-138.4753112792969	82.27610015869139	431.6006469726562	110.3844985961914	-250.4520874023438	426.5801086425781	-97.52102661132818	1.141037702560407	407.4200134277344	142.0154571533203	184.258041381836	1121.938110351562	-186.5767059326172	219.4780883789063	1168.403930664062	-213.9400329589844	215.4481353759765	1142.090087890625	274.5177001953124	410.9042053222656	1018.692077636719	233.9832763671875	432.024169921875	1033.500366210938	-184.2040710449219	257.2129516601562	1365.410888671875	-14.50827503204351	189.5398254394531	1499.772583007812	-21.01190185546882	187.6655578613281	1522.159057617188	107.644172668457	50.46553802490232	1406.70361328125	199.8089752197265	43.40837478637697	1412.503173828125	-94.49642181396493	49.23917007446288	1323.640502929688	51.90028381347649	483.2452087402344	1048.049682617188	-102.5987854003906	485.5792541503906	1048.432861328125	175.6138000488281	
477	3.966666666666667	252.0094604492187	1368.841552734375	128.2201690673828	56.6578788757324	415.5411987304688	188.1861724853515	-35.56658554077149	1199.692626953125	47.22082901000969	-175.7831420898438	409.3388061523438	-60.41468811035161	39.02970504760744	726.610107421875	-141.3583679199219	-206.4125061035156	1346.924072265625	55.24973678588856	176.4939422607422	1114.463012695312	225.2121276855468	384.4794921875	1011.51904296875	173.7128753662109	29.23724555969238	1461.010864257812	61.20209121704093	-186.7508697509766	1107.794555664062	-64.28389739990244	-102.1328125	251.3635864257812	-129.378890991211	239.4760131835937	379.0791015625	193.9508209228516	407.5981750488281	1028.929443359375	-125.4802474975586	-346.0177917480469	1139.650146484375	-8.027756690979116	-340.7369689941406	1135.558227539062	102.0378494262694	-181.0028076171875	1102.832153320312	145.5259399414062	46.72846221923829	679.2684326171875	-46.14843368530277	134.8190307617188	771.0652465820312	91.50128936767575	103.8910980224609	814.4683227539062	183.6195068359374	-204.6606292724609	416.5806274414062	-137.8731384277344	85.09252166748045	418.8664855957031	110.5602798461914	-251.0986633300781	440.2158813476562	-96.72675323486334	4.808187961578351	393.6823425292969	141.4471130371093	184.2659301757813	1121.638793945312	-186.5951843261719	219.4450225830078	1168.066772460938	-214.1032867431641	215.4867095947265	1142.122192382812	274.0415954589843	410.8972473144531	1018.329223632812	234.1584625244141	432.1039733886719	1033.450439453125	-184.0746612548828	257.2577514648438	1365.328125	-15.34972953796392	189.5487060546875	1499.6787109375	-21.7486476898194	187.9644927978516	1522.126098632812	106.8376007080077	50.80879211425779	1406.9326171875	199.3164825439452	43.21567916870119	1412.025512695312	-94.8275909423829	49.32999038696288	1323.55224609375	51.38425445556634	483.3197937011719	1048.04736328125	-102.4317474365235	485.4540710449219	1048.375122070312	175.8673400878906	
478	3.975	252.383071899414	1368.786010742188	127.348892211914	58.4039611816406	401.99462890625	188.4403686523437	-35.49522018432618	1199.705078125	46.89085769653312	-177.8364410400391	421.5843200683594	-59.55600738525396	44.76036453247072	733.4286499023438	-141.5982513427735	-206.2390289306641	1347.039428710938	55.34086990356434	176.7259826660156	1114.63720703125	224.5257720947265	384.6127624511719	1011.16064453125	173.8656463623047	29.48740577697753	1461.06201171875	60.70372772216788	-186.6520843505859	1107.923828125	-63.98627471923837	-103.628776550293	263.2750549316406	-129.1881713867188	241.4955749511718	366.6549377441406	194.2322692871094	407.6419982910156	1028.90185546875	-125.2382431030273	-345.8571166992188	1139.806762695312	-7.625627994537466	-340.29052734375	1135.62646484375	102.4320602416991	-180.6210327148438	1102.801147460938	145.8118896484374	51.67492294311524	686.2838134765625	-46.19438552856449	129.9136199951172	760.1461791992188	93.05783843994138	98.76421356201169	803.0279541015625	185.2072601318359	-204.9499969482422	429.7174072265625	-137.1765441894532	88.93179321289061	405.6251220703125	111.3727188110351	-250.9737243652344	453.9046020507812	-95.81062316894537	7.260984420776349	379.6424560546875	142.3082733154297	184.2836151123047	1121.312622070312	-186.6091918945313	219.4224090576172	1167.718139648438	-214.2695922851563	215.5607147216797	1142.16455078125	273.5571289062499	410.8921813964843	1017.968872070312	234.4127807617188	432.2085571289062	1033.392456054688	-183.8803100585938	257.3291015625	1365.23681640625	-16.21828842163091	189.6759033203125	1499.59521484375	-22.51511764526374	188.3480529785156	1522.0849609375	106.0571670532226	51.1725387573242	1407.22900390625	198.7555084228515	43.31490707397462	1411.81298828125	-95.34156799316415	49.41363525390624	1323.467041015625	50.95390701293938	483.3898010253906	1048.071533203125	-102.1685256958008	485.3330078125	1048.288208007812	176.1516265869141	
